# xmcd
#
# Track frame offsets: 
#        150
#        12350
#        25447
#        37960
#        50572
#        63802
#        77227
#        90127
#        104000
#        117572
#        131100
#        143787
#        157865
#        171242
#        183772
#        196615
#        210560
#        224240
#
# Disc length: 3178 seconds
#
# Revision: 0
# Processed by: cddbd v1.5.2PL0 Copyright (c) Steve Scherf et al.
# Submitted via: ExactAudioCopy v0.95b4
#
DISCID=f90c6812
DTITLE=Johnnie Temple - The Blues, from Mississippi to Chicago 1935-19
DTITLE=40 CD2÷2
DYEAR=1997
DGENRE=Blues
TTITLE0=When the breath bids your girl friend's body goodbye
TTITLE1=Big leg woman
TTITLE2=What a fool I've been
TTITLE3=Grinding mill
TTITLE4=Between midnight and dawn
TTITLE5=Walkin' blues
TTITLE6=Jelly roll Bert
TTITLE7=Up today and down tomorrow
TTITLE8=The sun goes down in blood
TTITLE9=Better not let my good gal catch you here
TTITLE10=If I could holler
TTITLE11=Streamline blues
TTITLE12=Good Suzie
TTITLE13=Down in Mississippi
TTITLE14=Evil bad woman
TTITLE15=Cherry ball
TTITLE16=Let's get together
TTITLE17=Skin and bones woman
EXTD=
EXTT0=
EXTT1=
EXTT2=
EXTT3=
EXTT4=
EXTT5=
EXTT6=
EXTT7=
EXTT8=
EXTT9=
EXTT10=
EXTT11=
EXTT12=
EXTT13=
EXTT14=
EXTT15=
EXTT16=
EXTT17=
PLAYORDER=
